REM DIRINDEX 1\2\6,1\2\7,1\2\8,1\2\9,1\3\10,1\3\11,1\4\12,1\4\13,1\4\14,1\5\15,1\5\16,1\5\17
REM DIRNAME folder01,folder02,folder03,folder04,folder05,folder06,folder07,folder08,folder09,folder10,folder11,folder12,folder13,folder14,folder15,folder16,folder17
TITLE ""
FILE "1400_2_sec09_0850_0867.mp3" MP3
  TRACK 01 AUDIO
    TITLE "0:"
    INDEX 01 00:00:00
  TRACK 02 AUDIO
    TITLE "13:cjc029_3301"
    INDEX 01 00:00:21
  TRACK 03 AUDIO
    TITLE "0:"
    INDEX 01 00:01:38
  TRACK 04 AUDIO
    TITLE "14:cjc029_3302"
    INDEX 01 00:01:42
  TRACK 05 AUDIO
    TITLE "0:"
    INDEX 01 00:03:43
  TRACK 06 AUDIO
    TITLE "13:cjc029_3303"
    INDEX 01 00:04:29
  TRACK 07 AUDIO
    TITLE "0:"
    INDEX 01 00:05:34
  TRACK 08 AUDIO
    TITLE "14:cjc029_3304"
    INDEX 01 00:05:40
  TRACK 09 AUDIO
    TITLE "0:"
    INDEX 01 00:09:55
  TRACK 10 AUDIO
    TITLE "13:cjc029_3305"
    INDEX 01 00:10:37
  TRACK 11 AUDIO
    TITLE "0:"
    INDEX 01 00:11:33
  TRACK 12 AUDIO
    TITLE "14:cjc029_3306"
    INDEX 01 00:11:39
  TRACK 13 AUDIO
    TITLE "0:"
    INDEX 01 00:14:68
  TRACK 14 AUDIO
    TITLE "13:cjc029_3307"
    INDEX 01 00:15:52
  TRACK 15 AUDIO
    TITLE "0:"
    INDEX 01 00:16:51
  TRACK 16 AUDIO
    TITLE "14:cjc029_3308"
    INDEX 01 00:16:57
  TRACK 17 AUDIO
    TITLE "0:"
    INDEX 01 00:18:11
  TRACK 18 AUDIO
    TITLE "13:cjc029_3309"
    INDEX 01 00:18:68
  TRACK 19 AUDIO
    TITLE "0:"
    INDEX 01 00:20:02
  TRACK 20 AUDIO
    TITLE "14:cjc029_3310"
    INDEX 01 00:20:06
  TRACK 21 AUDIO
    TITLE "0:"
    INDEX 01 00:21:09
  TRACK 22 AUDIO
    TITLE "13:cjc029_3311"
    INDEX 01 00:21:66
  TRACK 23 AUDIO
    TITLE "0:"
    INDEX 01 00:23:10
  TRACK 24 AUDIO
    TITLE "14:cjc029_3312"
    INDEX 01 00:23:16
  TRACK 25 AUDIO
    TITLE "0:"
    INDEX 01 00:25:56
  TRACK 26 AUDIO
    TITLE "13:cjc029_3313"
    INDEX 01 00:26:38
  TRACK 27 AUDIO
    TITLE "0:"
    INDEX 01 00:27:47
  TRACK 28 AUDIO
    TITLE "14:cjc029_3314"
    INDEX 01 00:27:53
  TRACK 29 AUDIO
    TITLE "0:"
    INDEX 01 00:29:66
  TRACK 30 AUDIO
    TITLE "13:cjc029_3315"
    INDEX 01 00:30:50
  TRACK 31 AUDIO
    TITLE "0:"
    INDEX 01 00:31:59
  TRACK 32 AUDIO
    TITLE "14:cjc029_3316"
    INDEX 01 00:31:67
  TRACK 33 AUDIO
    TITLE "0:"
    INDEX 01 00:33:62
  TRACK 34 AUDIO
    TITLE "13:cjc029_3317"
    INDEX 01 00:34:47
  TRACK 35 AUDIO
    TITLE "0:"
    INDEX 01 00:36:13
  TRACK 36 AUDIO
    TITLE "14:cjc029_3318"
    INDEX 01 00:36:15
  TRACK 37 AUDIO
    TITLE "0:"
    INDEX 01 00:40:21
  TRACK 38 AUDIO
    TITLE "13:cjc029_3319"
    INDEX 01 00:41:00
  TRACK 39 AUDIO
    TITLE "0:"
    INDEX 01 00:42:08
  TRACK 40 AUDIO
    TITLE "14:cjc029_3320"
    INDEX 01 00:42:16
  TRACK 41 AUDIO
    TITLE "0:"
    INDEX 01 00:44:65
  TRACK 42 AUDIO
    TITLE "13:cjc029_3321"
    INDEX 01 00:45:47
  TRACK 43 AUDIO
    TITLE "0:"
    INDEX 01 00:46:51
  TRACK 44 AUDIO
    TITLE "14:cjc029_3322"
    INDEX 01 00:46:60
  TRACK 45 AUDIO
    TITLE "0:"
    INDEX 01 00:51:30
  TRACK 46 AUDIO
    TITLE "13:cjc029_3323"
    INDEX 01 00:52:14
  TRACK 47 AUDIO
    TITLE "0:"
    INDEX 01 00:53:47
  TRACK 48 AUDIO
    TITLE "14:cjc029_3324"
    INDEX 01 00:53:53
  TRACK 49 AUDIO
    TITLE "0:"
    INDEX 01 00:56:14
  TRACK 50 AUDIO
    TITLE "13:cjc029_3325"
    INDEX 01 00:56:72
  TRACK 51 AUDIO
    TITLE "0:"
    INDEX 01 00:58:11
  TRACK 52 AUDIO
    TITLE "14:cjc029_3326"
    INDEX 01 00:58:20
  TRACK 53 AUDIO
    TITLE "0:"
    INDEX 01 01:00:37
  TRACK 54 AUDIO
    TITLE "13:cjc029_3327"
    INDEX 01 01:01:21
  TRACK 55 AUDIO
    TITLE "0:"
    INDEX 01 01:02:26
  TRACK 56 AUDIO
    TITLE "14:cjc029_3328"
    INDEX 01 01:02:30
  TRACK 57 AUDIO
    TITLE "0:"
    INDEX 01 01:04:50
  TRACK 58 AUDIO
    TITLE "13:cjc029_3329"
    INDEX 01 01:05:30
  TRACK 59 AUDIO
    TITLE "0:"
    INDEX 01 01:06:47
  TRACK 60 AUDIO
    TITLE "14:cjc029_3330"
    INDEX 01 01:06:53
  TRACK 61 AUDIO
    TITLE "0:"
    INDEX 01 01:10:39
  TRACK 62 AUDIO
    TITLE "13:cjc029_3331"
    INDEX 01 01:11:23
  TRACK 63 AUDIO
    TITLE "0:"
    INDEX 01 01:12:36
  TRACK 64 AUDIO
    TITLE "14:cjc029_3332"
    INDEX 01 01:12:40
  TRACK 65 AUDIO
    TITLE "0:"
    INDEX 01 01:16:03
  TRACK 66 AUDIO
    TITLE "13:cjc029_3333"
    INDEX 01 01:16:60
  TRACK 67 AUDIO
    TITLE "0:"
    INDEX 01 01:17:63
  TRACK 68 AUDIO
    TITLE "14:cjc029_3334"
    INDEX 01 01:17:69
  TRACK 69 AUDIO
    TITLE "0:"
    INDEX 01 01:20:57
  TRACK 70 AUDIO
    TITLE "13:cjc029_3335"
    INDEX 01 01:21:37
  TRACK 71 AUDIO
    TITLE "0:"
    INDEX 01 01:22:44
  TRACK 72 AUDIO
    TITLE "14:cjc029_3336"
    INDEX 01 01:22:50
  TRACK 73 AUDIO
    TITLE "0:"
    INDEX 01 01:28:49
